<?xml version="1.0" encoding="UTF-8" standalone="no"?>
<!DOCTYPE svg PUBLIC "-//W3C//DTD SVG 1.1//EN"
 "http://www.w3.org/Graphics/SVG/1.1/DTD/svg11.dtd">
<!-- Generated by graphviz version 2.40.1 (20161225.0304)
 -->
<!-- Title: G Pages: 1 -->
<svg width="403pt" height="362pt"
 viewBox="0.00 0.00 402.83 362.00" xmlns="http://www.w3.org/2000/svg" xmlns:xlink="http://www.w3.org/1999/xlink">
<g id="graph0" class="graph" transform="scale(1 1) rotate(0) translate(4 358)">
<title>G</title>
<polygon fill="#ffffff" stroke="transparent" points="-4,4 -4,-358 398.832,-358 398.832,4 -4,4"/>
<!-- A0 -->
<g id="node1" class="node">
<title>A0</title>
<polygon fill="none" stroke="#000000" points="59.4969,-354 .1671,-354 .1671,-318 59.4969,-318 59.4969,-354"/>
<text text-anchor="middle" x="29.832" y="-333" font-family="Helvetica,sans-Serif" font-size="10.00" fill="#000000">Grid3D</text>
</g>
<!-- A1 -->
<g id="node2" class="node">
<title>A1</title>
<polygon fill="#fff8dc" stroke="#000000" points="186.0284,-354 77.6356,-354 77.6356,-318 192.0284,-318 192.0284,-348 186.0284,-354"/>
<polyline fill="none" stroke="#000000" points="186.0284,-354 186.0284,-348 "/>
<polyline fill="none" stroke="#000000" points="192.0284,-348 186.0284,-348 "/>
<text text-anchor="middle" x="134.832" y="-339" font-family="Helvetica,sans-Serif" font-size="10.00" fill="#000000">You can stick notes</text>
<text text-anchor="middle" x="134.832" y="-327" font-family="Helvetica,sans-Serif" font-size="10.00" fill="#000000">on diagrams too!</text>
</g>
<!-- A2 -->
<g id="node3" class="node">
<title>A2</title>
<polygon fill="none" stroke="#000000" points="281.6658,-354 209.9982,-354 209.9982,-318 281.6658,-318 281.6658,-354"/>
<text text-anchor="middle" x="245.832" y="-333" font-family="Helvetica,sans-Serif" font-size="10.00" fill="#000000">Customer</text>
</g>
<!-- A3 -->
<g id="node4" class="node">
<title>A3</title>
<polygon fill="none" stroke="#000000" points="272.832,-268 218.832,-268 218.832,-232 272.832,-232 272.832,-268"/>
<text text-anchor="middle" x="245.832" y="-247" font-family="Helvetica,sans-Serif" font-size="10.00" fill="#000000">Order</text>
</g>
<!-- A2&#45;&gt;A3 -->
<g id="edge1" class="edge">
<title>A2&#45;&gt;A3</title>
<path fill="none" stroke="#000000" d="M245.832,-305.5205C245.832,-296.6543 245.832,-287.01 245.832,-278.2849"/>
<polygon fill="none" stroke="#000000" points="245.8321,-305.7616 249.832,-311.7616 245.832,-317.7616 241.832,-311.7616 245.8321,-305.7616"/>
<polygon fill="#000000" stroke="#000000" points="245.832,-268.2121 250.3321,-278.2121 245.832,-273.2121 245.8321,-278.2121 245.8321,-278.2121 245.8321,-278.2121 245.832,-273.2121 241.3321,-278.2121 245.832,-268.2121 245.832,-268.2121"/>
<text text-anchor="middle" x="254.2844" y="-283.3383" font-family="Helvetica,sans-Serif" font-size="10.00" fill="#000000">orders 0..*</text>
<text text-anchor="middle" x="237.3796" y="-296.6355" font-family="Helvetica,sans-Serif" font-size="10.00" fill="#000000">1</text>
</g>
<!-- A4 -->
<g id="node5" class="node">
<title>A4</title>
<polygon fill="none" stroke="#000000" points="179.1749,-152 112.4891,-152 112.4891,-116 179.1749,-116 179.1749,-152"/>
<text text-anchor="middle" x="145.832" y="-131" font-family="Helvetica,sans-Serif" font-size="10.00" fill="#000000">LineItem</text>
</g>
<!-- A3&#45;&gt;A4 -->
<g id="edge2" class="edge">
<title>A3&#45;&gt;A4</title>
<path fill="none" stroke="#000000" d="M222.1671,-222.5487C205.8992,-203.678 184.4267,-178.7698 168.4,-160.1789"/>
<polygon fill="#000000" stroke="#000000" points="222.3717,-222.7861 229.319,-224.7188 230.207,-231.875 223.2597,-229.9423 222.3717,-222.7861"/>
<polygon fill="#000000" stroke="#000000" points="161.6773,-152.3805 171.6151,-157.0164 164.942,-156.1676 168.2067,-159.9547 168.2067,-159.9547 168.2067,-159.9547 164.942,-156.1676 164.7984,-162.8929 161.6773,-152.3805 161.6773,-152.3805"/>
<text text-anchor="middle" x="179.9145" y="-157.5906" font-family="Helvetica,sans-Serif" font-size="10.00" fill="#000000">*</text>
<text text-anchor="middle" x="211.9698" y="-220.665" font-family="Helvetica,sans-Serif" font-size="10.00" fill="#000000">*</text>
</g>
<!-- A5 -->
<g id="node6" class="node">
<title>A5</title>
<polygon fill="none" stroke="#000000" points="294.781,-152 196.883,-152 196.883,-116 294.781,-116 294.781,-152"/>
<text text-anchor="middle" x="245.832" y="-131" font-family="Helvetica,sans-Serif" font-size="10.00" fill="#000000">DeliveryMethod</text>
</g>
<!-- A3&#45;&gt;A5 -->
<g id="edge3" class="edge">
<title>A3&#45;&gt;A5</title>
<path fill="none" stroke="#000000" d="M245.832,-231.875C245.832,-213.3412 245.832,-184.2787 245.832,-162.6311"/>
<polygon fill="#000000" stroke="#000000" points="245.832,-152.3805 250.3321,-162.3805 245.832,-157.3805 245.8321,-162.3805 245.8321,-162.3805 245.8321,-162.3805 245.832,-157.3805 241.3321,-162.3806 245.832,-152.3805 245.832,-152.3805"/>
<text text-anchor="middle" x="254.2844" y="-167.5067" font-family="Helvetica,sans-Serif" font-size="10.00" fill="#000000">1</text>
</g>
<!-- A6 -->
<g id="node7" class="node">
<title>A6</title>
<polygon fill="none" stroke="#000000" points="312.832,-150 312.832,-182 394.832,-182 394.832,-150 312.832,-150"/>
<text text-anchor="start" x="336.605" y="-163" font-family="Helvetica,sans-Serif" font-size="10.00" fill="#000000">Product</text>
<polygon fill="none" stroke="#000000" points="312.832,-118 312.832,-150 394.832,-150 394.832,-118 312.832,-118"/>
<text text-anchor="start" x="328.826" y="-131" font-family="Helvetica,sans-Serif" font-size="10.00" fill="#000000">EAN_Code</text>
<polygon fill="none" stroke="#000000" points="312.832,-86 312.832,-118 394.832,-118 394.832,-86 312.832,-86"/>
<text text-anchor="start" x="322.723" y="-99" font-family="Helvetica,sans-Serif" font-size="10.00" fill="#000000">promo_price()</text>
</g>
<!-- A3&#45;&gt;A6 -->
<g id="edge4" class="edge">
<title>A3&#45;&gt;A6</title>
<path fill="none" stroke="#000000" d="M262.707,-231.875C274.2311,-219.4973 290.1274,-202.4235 305.4195,-185.9986"/>
<polygon fill="#000000" stroke="#000000" points="312.3853,-178.5169 308.8646,-188.9022 308.9781,-182.1764 305.571,-185.8358 305.571,-185.8358 305.571,-185.8358 308.9781,-182.1764 302.2775,-182.7694 312.3853,-178.5169 312.3853,-178.5169"/>
<text text-anchor="middle" x="306.22" y="-194.5429" font-family="Helvetica,sans-Serif" font-size="10.00" fill="#000000">*</text>
<text text-anchor="middle" x="268.8723" y="-209.849" font-family="Helvetica,sans-Serif" font-size="10.00" fill="#000000">*</text>
</g>
<!-- A8 -->
<g id="node9" class="node">
<title>A8</title>
<polygon fill="none" stroke="#000000" points="232.0048,-36 167.6592,-36 167.6592,0 232.0048,0 232.0048,-36"/>
<text text-anchor="middle" x="199.832" y="-15" font-family="Helvetica,sans-Serif" font-size="10.00" fill="#000000">National</text>
</g>
<!-- A5&#45;&gt;A8 -->
<g id="edge6" class="edge">
<title>A5&#45;&gt;A8</title>
<path fill="none" stroke="#000000" d="M234.9461,-106.5487C226.3555,-84.8854 214.6098,-55.2657 207.1208,-36.3805"/>
<polygon fill="none" stroke="#000000" points="231.7047,-107.8694 238.6445,-115.875 238.2117,-105.289 231.7047,-107.8694"/>
</g>
<!-- A9 -->
<g id="node10" class="node">
<title>A9</title>
<polygon fill="none" stroke="#000000" points="333.349,-36 250.315,-36 250.315,0 333.349,0 333.349,-36"/>
<text text-anchor="middle" x="291.832" y="-15" font-family="Helvetica,sans-Serif" font-size="10.00" fill="#000000">International</text>
</g>
<!-- A5&#45;&gt;A9 -->
<g id="edge7" class="edge">
<title>A5&#45;&gt;A9</title>
<path fill="none" stroke="#000000" d="M256.7179,-106.5487C265.3085,-84.8854 277.0542,-55.2657 284.5432,-36.3805"/>
<polygon fill="none" stroke="#000000" points="253.4523,-105.289 253.0195,-115.875 259.9593,-107.8694 253.4523,-105.289"/>
</g>
<!-- A7 -->
<g id="node8" class="node">
<title>A7</title>
<polygon fill="none" stroke="#000000" points="387.8964,-268 319.7676,-268 319.7676,-232 387.8964,-232 387.8964,-268"/>
<text text-anchor="middle" x="353.832" y="-247" font-family="Helvetica,sans-Serif" font-size="10.00" fill="#000000">Category</text>
</g>
<!-- A7&#45;&gt;A6 -->
<g id="edge5" class="edge">
<title>A7&#45;&gt;A6</title>
<path fill="none" stroke="#000000" d="M353.832,-221.6487C353.832,-212.7006 353.832,-202.4647 353.832,-192.2197"/>
<polygon fill="#000000" stroke="#000000" points="353.832,-231.875 349.3321,-221.875 353.832,-226.875 353.8321,-221.875 353.8321,-221.875 353.8321,-221.875 353.832,-226.875 358.3321,-221.875 353.832,-231.875 353.832,-231.875"/>
<polygon fill="#000000" stroke="#000000" points="353.832,-182.019 358.3321,-192.0189 353.832,-187.019 353.8321,-192.019 353.8321,-192.019 353.8321,-192.019 353.832,-187.019 349.3321,-192.019 353.832,-182.019 353.832,-182.019"/>
</g>
</g>
</svg>
